<?xml version="1.0" encoding="UTF-8" standalone="no"?>
<!-- Created with Inkscape (http://www.inkscape.org/) -->

<svg
   version="1.1"
   id="svg7719"
   xml:space="preserve"
   width="682.66669"
   height="682.66669"
   viewBox="0 0 682.66669 682.66669"
   xmlns="http://www.w3.org/2000/svg"
   xmlns:svg="http://www.w3.org/2000/svg"><defs
     id="defs7723"><clipPath
       clipPathUnits="userSpaceOnUse"
       id="clipPath7733"><path
         d="M 0,512 H 512 V 0 H 0 Z"
         id="path7731" /></clipPath></defs><g
     id="g7725"
     transform="matrix(1.3333333,0,0,-1.3333333,0,682.66667)"><g
       id="g7727"><g
         id="g7729"
         clip-path="url(#clipPath7733)"><g
           id="g7735"
           transform="translate(443.1182,451.1416)"><path
             d="m 0,0 h -370.847 c -2.639,0 -4.807,-2.166 -4.807,-4.806 v -370.7 c 0,-2.64 2.168,-4.806 4.807,-4.806 H 0 c 2.64,0 4.835,2.166 4.835,4.806 v 370.7 C 4.835,-2.166 2.64,0 0,0"
             style="fill:#c8effe;fill-opacity:1;fill-rule:evenodd;stroke:none"
             id="path7737" /></g><g
           id="g7739"
           transform="translate(124.9839,258.4307)"><path
             d="m 0,0 -57.52,-58.58 v -124.215 c 0,-2.64 2.168,-4.806 4.808,-4.806 l 274.092,-0.028 -106.23,101.661 -2.445,2.5 L 30.732,0 C 20.173,10.36 9.364,10.36 0,0"
             style="fill:#80d261;fill-opacity:1;fill-rule:evenodd;stroke:none"
             id="path7741" /></g><g
           id="g7743"
           transform="translate(333.915,272.9854)"><path
             d="m 0,0 -96.227,-98.022 2.446,-2.5 106.23,-101.662 96.754,0.029 c 2.64,0 4.835,2.166 4.835,4.805 v 99.328 15.61 L 33.122,0 C 22.646,10.277 11.976,11.082 2.473,2.472 1.64,1.722 0.806,0.889 0,0"
             style="fill:#80d261;fill-opacity:1;fill-rule:evenodd;stroke:none"
             id="path7745" /></g><g
           id="g7747"
           transform="translate(237.6885,174.9629)"><path
             d="m 0,0 -81.972,83.468 c -3.418,3.36 -6.891,5.638 -10.309,6.804 9.614,-19.749 17.895,-40.941 24.564,-63.329 13.448,-45.219 18.7,-89.967 16.728,-131.076 L 108.675,-104.161 2.445,-2.5 Z"
             style="fill:#68ca44;fill-opacity:1;fill-rule:evenodd;stroke:none"
             id="path7749" /></g><g
           id="g7751"
           transform="translate(443.1182,451.1416)"><path
             d="m 0,0 h -194.204 c 42.014,-38.664 77.721,-96.134 98.144,-164.769 0.5,-1.694 1,-3.388 1.473,-5.083 6.058,0.529 12.31,-2.25 18.506,-8.304 L 4.835,-260.568 V -4.806 C 4.835,-2.166 2.64,0 0,0"
             style="fill:#99e6fc;fill-opacity:1;fill-rule:evenodd;stroke:none"
             id="path7753" /></g><g
           id="g7755"
           transform="translate(447.9531,190.5732)"><path
             d="m 0,0 -80.916,82.412 c -6.196,6.055 -12.448,8.833 -18.506,8.305 21.924,-77.135 20.062,-152.63 -0.862,-210.46 h 95.449 c 2.64,0 4.835,2.166 4.835,4.805 l 0,99.328 z"
             style="fill:#68ca44;fill-opacity:1;fill-rule:evenodd;stroke:none"
             id="path7757" /></g><g
           id="g7759"
           transform="translate(278.5073,216.5439)"><path
             d="m 0,0 -40.819,-41.581 m 210.265,15.61 -80.916,82.412 c -11.365,11.166 -23.035,11.166 -33.122,0 L 23.341,23.749"
             style="fill:none;stroke:#000000;stroke-width:15.118;stroke-linecap:round;stroke-linejoin:round;stroke-miterlimit:10;stroke-dasharray:none;stroke-opacity:1"
             id="path7761" /></g><g
           id="g7763"
           transform="translate(160.8848,348.2588)"><path
             d="M 0,0 C 14.394,4.139 22.73,19.193 18.589,33.609 14.449,47.997 -0.583,56.33 -15.005,52.191 -29.427,48.053 -37.763,33.025 -33.623,18.61 -29.482,4.194 -14.421,-4.139 0,0"
             style="fill:#fee97d;fill-opacity:1;fill-rule:evenodd;stroke:none"
             id="path7765" /></g><g
           id="g7767"
           transform="translate(160.8848,348.2588)"><path
             d="m 0,0 c 14.394,4.139 22.73,19.193 18.589,33.609 -4.14,14.388 -19.172,22.721 -33.594,18.582 -0.917,-0.25 -1.834,-0.583 -2.723,-0.917 7.475,-3.027 13.504,-9.333 15.894,-17.665 C 2.056,20.109 -5.001,6.083 -17.728,0.944 -12.282,-1.278 -6.085,-1.75 0,0"
             style="fill:#fec165;fill-opacity:1;fill-rule:evenodd;stroke:none"
             id="path7769" /></g><g
           id="g7771"
           transform="translate(212.791,342.5928)"><path
             d="M 0,0 10.781,-5.944"
             style="fill:none;stroke:#000000;stroke-width:15.118;stroke-linecap:round;stroke-linejoin:round;stroke-miterlimit:10;stroke-dasharray:none;stroke-opacity:1"
             id="path7773" /></g><g
           id="g7775"
           transform="translate(173.1665,320.2881)"><path
             d="M 0,0 3.39,-11.833"
             style="fill:none;stroke:#000000;stroke-width:15.118;stroke-linecap:round;stroke-linejoin:round;stroke-miterlimit:10;stroke-dasharray:none;stroke-opacity:1"
             id="path7777" /></g><g
           id="g7779"
           transform="translate(210.6792,388.0342)"><path
             d="M 0,0 11.837,3.389"
             style="fill:none;stroke:#000000;stroke-width:15.118;stroke-linecap:round;stroke-linejoin:round;stroke-miterlimit:10;stroke-dasharray:none;stroke-opacity:1"
             id="path7781" /></g><g
           id="g7783"
           transform="translate(126.2065,319.8154)"><path
             d="M 0,0 -4.696,-11.36"
             style="fill:none;stroke:#000000;stroke-width:15.118;stroke-linecap:round;stroke-linejoin:round;stroke-miterlimit:10;stroke-dasharray:none;stroke-opacity:1"
             id="path7785" /></g><g
           id="g7787"
           transform="translate(145.8799,400.4502)"><path
             d="M 0,0 C 14.421,4.139 29.454,-4.194 33.594,-18.582 37.735,-32.998 29.398,-48.053 15.005,-52.191 0.583,-56.33 -14.477,-47.997 -18.618,-33.581 -22.758,-19.166 -14.422,-4.139 0,0 Z"
             style="fill:none;stroke:#000000;stroke-width:15.118;stroke-linecap:round;stroke-linejoin:round;stroke-miterlimit:10;stroke-dasharray:none;stroke-opacity:1"
             id="path7789" /></g><g
           id="g7791"
           transform="translate(43.9009,499.5)"><path
             d="M 0,0 H -36.401"
             style="fill:none;stroke:#000000;stroke-width:15.118;stroke-linecap:round;stroke-linejoin:round;stroke-miterlimit:10;stroke-dasharray:none;stroke-opacity:1"
             id="path7793" /></g><g
           id="g7795"
           transform="translate(458.29,499.5)"><path
             d="M 0,0 H 36.401"
             style="fill:none;stroke:#000000;stroke-width:15.118;stroke-linecap:round;stroke-linejoin:round;stroke-miterlimit:10;stroke-dasharray:none;stroke-opacity:1"
             id="path7797" /></g><g
           id="g7799"
           transform="translate(43.9009,12.5)"><path
             d="M 0,0 H -36.401"
             style="fill:none;stroke:#000000;stroke-width:15.118;stroke-linecap:round;stroke-linejoin:round;stroke-miterlimit:10;stroke-dasharray:none;stroke-opacity:1"
             id="path7801" /></g><g
           id="g7803"
           transform="translate(7.5,463.1133)"><path
             d="M 0,0 V 36.387"
             style="fill:none;stroke:#000000;stroke-width:15.118;stroke-linecap:round;stroke-linejoin:round;stroke-miterlimit:10;stroke-dasharray:none;stroke-opacity:1"
             id="path7805" /></g><g
           id="g7807"
           transform="translate(494.6914,463.1133)"><path
             d="M 0,0 V 36.387"
             style="fill:none;stroke:#000000;stroke-width:15.118;stroke-linecap:round;stroke-linejoin:round;stroke-miterlimit:10;stroke-dasharray:none;stroke-opacity:1"
             id="path7809" /></g><g
           id="g7811"
           transform="translate(7.5,12.5)"><path
             d="M 0,0 V 36.387"
             style="fill:none;stroke:#000000;stroke-width:15.118;stroke-linecap:round;stroke-linejoin:round;stroke-miterlimit:10;stroke-dasharray:none;stroke-opacity:1"
             id="path7813" /></g><g
           id="g7815"
           transform="translate(499.2207,183.7676)"><path
             d="m 0,0 h -189.147 c -2.89,0 -5.28,-2.36 -5.28,-5.249 V -165.99 c 0,-2.889 2.39,-5.278 5.28,-5.278 H 0 c 2.89,0 5.279,2.389 5.279,5.278 V -5.249 C 5.279,-2.36 2.89,0 0,0"
             style="fill:#e2e2e2;fill-opacity:1;fill-rule:evenodd;stroke:none"
             id="path7817" /></g><g
           id="g7819"
           transform="translate(494.6914,183.7676)"><path
             d="M 0,0 H -46.738 -74.72 c 10.671,-23.526 16.867,-51.136 16.923,-80.717 v -0.528 c 0,-4.083 -0.112,-8.166 -0.334,-12.193 -0.389,-6.639 -1.083,-13.139 -2.056,-19.5 -3.279,-21.36 -9.781,-41.136 -18.84,-58.33 H 0 4.529 c 2.89,0 5.28,2.389 5.28,5.278 V -5.249 C 9.809,-2.36 7.419,0 4.529,0 Z"
             style="fill:#cecece;fill-opacity:1;fill-rule:evenodd;stroke:none"
             id="path7821" /></g><g
           id="g7823"
           transform="translate(499.2207,183.7676)"><path
             d="m 0,0 h -189.147 c -2.89,0 -5.28,-2.36 -5.28,-5.249 V -165.99 c 0,-2.889 2.39,-5.278 5.28,-5.278 H 0 c 2.89,0 5.279,2.389 5.279,5.278 V -5.249 C 5.279,-2.36 2.89,0 0,0 Z"
             style="fill:none;stroke:#000000;stroke-width:15.118;stroke-linecap:round;stroke-linejoin:round;stroke-miterlimit:10;stroke-dasharray:none;stroke-opacity:1"
             id="path7825" /></g><g
           id="g7827"
           transform="translate(304.7939,110.5781)"><path
             d="m 0,0 -64.66,61.885 -84.418,85.968 c -10.559,10.36 -21.368,10.36 -30.732,0 l -57.52,-58.581"
             style="fill:none;stroke:#000000;stroke-width:15.118;stroke-linecap:round;stroke-linejoin:round;stroke-miterlimit:10;stroke-dasharray:none;stroke-opacity:1"
             id="path7829" /></g><g
           id="g7831"
           transform="translate(146.1299,70.8301)"><path
             d="m 0,0 h 158.664 v 107.688 c 0,2.889 2.39,5.25 5.28,5.25 h 137.879 v 262.568 c 0,2.64 -2.195,4.806 -4.835,4.806 H -73.858 c -2.64,0 -4.808,-2.166 -4.808,-4.806 V 4.806 c 0,-2.64 2.168,-4.806 4.808,-4.806 h 39.902"
             style="fill:none;stroke:#000000;stroke-width:15.118;stroke-linecap:round;stroke-linejoin:round;stroke-miterlimit:10;stroke-dasharray:none;stroke-opacity:1"
             id="path7833" /></g><g
           id="g7835"
           transform="translate(348.8921,93.8838)"><path
             d="m 0,0 h 31.344 c 14.199,0 14.199,31.138 0,31.138 H 26.648 1.834 c -1.889,0 -1.889,-0.75 -1.889,-2.056 l 0.111,-54.191"
             style="fill:none;stroke:#000000;stroke-width:15.118;stroke-linecap:round;stroke-linejoin:round;stroke-miterlimit:10;stroke-dasharray:none;stroke-opacity:1"
             id="path7837" /></g><g
           id="g7839"
           transform="translate(417.9712,125.0215)"><path
             d="M 0,0 48.488,-56.247"
             style="fill:none;stroke:#000000;stroke-width:15.118;stroke-linecap:round;stroke-linejoin:round;stroke-miterlimit:10;stroke-dasharray:none;stroke-opacity:1"
             id="path7841" /></g><g
           id="g7843"
           transform="translate(466.4595,125.0215)"><path
             d="M 0,0 -48.488,-56.247"
             style="fill:none;stroke:#000000;stroke-width:15.118;stroke-linecap:round;stroke-linejoin:round;stroke-miterlimit:10;stroke-dasharray:none;stroke-opacity:1"
             id="path7845" /></g></g></g></g></svg>
